<svg width="126" height="119" viewBox="0 0 126 119" fill="none" xmlns="http://www.w3.org/2000/svg">
<path d="M63 0C28.2114 0 0 26.6441 0 59.5C0 92.3559 28.2114 119 63 119C97.7886 119 126 92.3559 126 59.5C126 26.6441 97.7886 0 63 0ZM44.6929 89.9473H29.3496V46.3509H44.6929V89.9473ZM37.0217 40.3978H36.9218C31.773 40.3978 28.4431 37.0504 28.4431 32.8668C28.4431 28.5888 31.8749 25.334 37.1236 25.334C42.3723 25.334 45.6023 28.5888 45.7023 32.8668C45.7023 37.0504 42.3723 40.3978 37.0217 40.3978ZM100.018 89.9473H84.6764V66.6243C84.6764 60.7629 82.4549 56.7654 76.9033 56.7654C72.6649 56.7654 70.1406 59.4619 69.0312 62.0648C68.6255 62.9963 68.5265 64.2982 68.5265 65.6011V89.9473H53.1841C53.1841 89.9473 53.385 50.441 53.1841 46.3509H68.5265V52.5237C70.5655 49.5531 74.2136 45.3277 82.3539 45.3277C92.4486 45.3277 100.018 51.5586 100.018 64.9492V89.9473Z" fill="#244CA6"/>
</svg>
